{"accessors" : [{"bufferView" : 0, "byteOffset" : 0, "componentType" : 5125, "count" : 103440, "type" : "SCALAR", "max" : [103439], "min" : [0]}, {"bufferView" : 1, "byteOffset" : 0, "componentType" : 5126, "count" : 103440, "type" : "VEC3", "max" : [97.34235382080078, 180.4632110595703, 20.37575912475586], "min" : [-97.3426284790039, -0.01022443175315857, -16.05109405517578], "name" : "POSITION"}, {"bufferView" : 1, "byteOffset" : 12, "componentType" : 5126, "count" : 103440, "type" : "VEC3", "max" : [0.9999964237213135, 0.9998318552970886, 1.000001072883606], "min" : [-0.999996542930603, -0.9999902248382568, -1.0000026226043701], "name" : "NORMAL"}, {"bufferView" : 1, "byteOffset" : 24, "componentType" : 5126, "count" : 103440, "type" : "VEC2", "max" : [0.9965193867683411, 0.9968996644020081], "min" : [0.0035705040208995342, 0.0010933876037597656], "name" : "TEXCOORD_0"}, {"bufferView" : 0, "byteOffset" : 413760, "componentType" : 5123, "count" : 62520, "type" : "SCALAR", "max" : [12472], "min" : [0]}, {"bufferView" : 2, "byteOffset" : 0, "componentType" : 5126, "count" : 12473, "type" : "VEC3", "max" : [94.52721405029297, 159.83914184570312, 13.96785831451416], "min" : [-94.5274887084961, 0.7688927054405212, -13.592483520507812], "name" : "POSITION"}, {"bufferView" : 2, "byteOffset" : 12, "componentType" : 5126, "count" : 12473, "type" : "VEC3", "max" : [1.0000044107437134, 1.0000044107437134, 1.0000044107437134], "min" : [-1.0000044107437134, -1.0000044107437134, -1.0000044107437134], "name" : "NORMAL"}, {"bufferView" : 2, "byteOffset" : 24, "componentType" : 5126, "count" : 12473, "type" : "VEC2", "max" : [1, 1], "min" : [0, 0], "name" : "TEXCOORD_0"}, {"bufferView" : 3, "byteOffset" : 0, "componentType" : 5126, "normalized" : false, "count" : 157, "type" : "SCALAR", "max" : [5.2], "min" : [0]}, {"bufferView" : 3, "byteOffset" : 628, "componentType" : 5126, "normalized" : false, "count" : 157, "type" : "VEC3", "max" : [4.053361892700195, 111.27047729492188, 116.51116943359375], "min" : [-13.626001358032227, 77.92488098144531, -11.775869369506836]}], "animations" : [{"channels" : [{"sampler" : 0, "target" : {"node" : -1, "path" : "translation"}}], "samplers" : [{"input" : 8, "interpolation" : "CUBICSPLINE", "output" : 9}], "name" : "mixamo.com"}], "asset" : {"generator" : "Aspose.3D 24.2.0", "version" : "2.0"}, "buffers" : [{"uri" : "buffer.bin", "byteLength" : 4250544}], "bufferViews" : [{"buffer" : 0, "byteOffset" : 0, "byteLength" : 538800, "target" : 34963}, {"buffer" : 0, "byteOffset" : 538804, "byteLength" : 3310080, "byteStride" : 32, "target" : 34962}, {"buffer" : 0, "byteOffset" : 3848888, "byteLength" : 399136, "byteStride" : 32, "target" : 34962}, {"buffer" : 0, "byteOffset" : 4248028, "byteLength" : 2512}], "materials" : [{"name" : "Alpha_Body_MAT", "pbrMetallicRoughness" : {"baseColorFactor" : [0.09657000750303268, 0.42161980271339417, 0.5220000147819519, 1], "metallicFactor" : 1, "roughnessFactor" : 1}, "emissiveFactor" : [0, 0, 0], "alphaMode" : "OPAQUE", "doubleSided" : false}, {"name" : "Alpha_Joints_MAT", "pbrMetallicRoughness" : {"baseColorFactor" : [0.15355153381824493, 0.21289387345314026, 0.2222171425819397, 1], "metallicFactor" : 1, "roughnessFactor" : 1}, "emissiveFactor" : [0, 0, 0], "alphaMode" : "OPAQUE", "doubleSided" : false}], "meshes" : [{"primitives" : [{"attributes" : {"POSITION" : 1, "NORMAL" : 2, "TEXCOORD_0" : 3}, "indices" : 0, "material" : 0, "mode" : 4}], "name" : "Alpha_Surface"}, {"primitives" : [{"attributes" : {"POSITION" : 5, "NORMAL" : 6, "TEXCOORD_0" : 7}, "indices" : 4, "material" : 1, "mode" : 4}], "name" : "Alpha_Joints"}], "nodes" : [{"mesh" : 0, "name" : "Alpha_Surface"}, {"mesh" : 1, "name" : "Alpha_Joints"}], "scene" : 0, "scenes" : [{"nodes" : [0, 1]}]}